<svg width="552" height="552" viewBox="0 0 552 552" fill="none" xmlns="http://www.w3.org/2000/svg">
<path d="M509.076 288.144C503.612 334.512 482.448 388.387 440.176 413.139C376.32 450.553 381.664 508.083 257.011 533.111C238.833 536.848 220.302 538.599 201.745 538.332C192.666 538.171 183.606 537.434 174.62 536.124C95.3856 524.588 42.0734 469.52 22.5216 403.048C-3.2237 315.623 48.1785 258.424 82.2369 223.902C116.295 189.38 141.312 81.972 263.602 56.4144C282.27 52.4438 301.333 50.6361 320.414 51.0269C363.945 52.1309 411.417 66.3835 444.272 96.2246C446.745 98.4326 449.148 100.751 451.481 103.18C497.142 150.056 516.551 224.995 509.076 288.144Z" fill="#38B6FF"/>
<path opacity="0.7" d="M509.076 288.144C503.612 334.512 482.448 388.387 440.176 413.139C376.32 450.553 381.664 508.083 257.011 533.111C238.833 536.848 220.302 538.599 201.745 538.332C192.666 538.171 183.606 537.434 174.62 536.124C95.3856 524.588 42.0734 469.52 22.5216 403.048C-3.2237 315.623 48.1785 258.424 82.2369 223.902C116.295 189.38 141.312 81.972 263.602 56.4144C282.27 52.4438 301.333 50.6361 320.414 51.0269C363.945 52.1309 411.417 66.3835 444.272 96.2246C446.745 98.4326 449.148 100.751 451.481 103.18C497.142 150.056 516.551 224.995 509.076 288.144Z" fill="white"/>
<path d="M539.414 490.297H15.6768" stroke="#263238" stroke-linecap="round" stroke-linejoin="round"/>
<g opacity="0.3">
<path d="M31.2874 364.188C35.5267 366.031 45.9043 365.799 45.9043 365.799C45.9043 365.799 43.6963 359.01 43.4866 358.601C41.2123 353.843 34.0143 345.983 28.1631 346.777C27.1992 346.935 26.2791 347.293 25.4622 347.829C24.6452 348.364 23.9496 349.065 23.4201 349.886C22.8906 350.706 22.539 351.629 22.3881 352.594C22.2372 353.559 22.2902 354.545 22.5437 355.488C23.5263 359.595 27.6773 362.609 31.2874 364.188Z" fill="black"/>
<path d="M34.8754 394.216C39.2914 394.857 48.5208 392.174 49.2274 392.008C50.7603 397.288 52.645 402.459 54.8688 407.486C56.1495 410.434 57.5184 413.371 58.9316 416.318C58.0925 415.082 57.3197 413.989 57.1983 413.845C53.7538 409.849 44.7341 404.174 39.3024 406.482C38.4101 406.891 37.6137 407.483 36.9651 408.22C36.3165 408.957 35.8301 409.822 35.5375 410.759C35.245 411.696 35.1528 412.684 35.2669 413.659C35.3811 414.634 35.6991 415.574 36.2002 416.418C38.2095 420.072 43.0229 421.872 46.92 422.446C50.8172 423.02 58.8101 420.889 60.8967 420.304C61.4597 421.408 62.0007 422.512 62.5527 423.616C65.2354 428.948 67.9291 434.258 70.4131 439.558C71.2963 441.412 72.0912 443.289 72.8971 445.155C72.1464 444.051 71.5061 443.135 71.3847 442.947C67.9402 438.961 58.9205 433.287 53.4888 435.594C52.5953 436.002 51.7977 436.593 51.1481 437.33C50.4984 438.067 50.0114 438.932 49.7187 439.869C49.426 440.807 49.3342 441.796 49.4492 442.771C49.5643 443.746 49.8837 444.687 50.3866 445.53C52.3959 449.196 57.2093 450.995 61.1064 451.569C65.0035 452.143 72.2237 450.211 74.7077 449.527C75.4805 451.459 76.2423 453.402 76.9157 455.312C77.3352 456.625 77.832 457.862 78.1743 459.209C78.5165 460.556 78.9029 461.836 79.2783 463.139C79.8855 465.656 80.5258 468.262 81.0557 470.735C81.4311 472.457 81.7623 474.102 82.1597 475.769C81.3096 473.892 79.5653 470.249 79.3887 469.995C76.5845 465.524 68.5253 458.546 62.8287 460.004C61.8838 460.271 61.006 460.735 60.2525 461.365C59.4989 461.995 58.8866 462.776 58.4553 463.659C58.0241 464.541 57.7836 465.504 57.7496 466.486C57.7157 467.467 57.8889 468.445 58.2581 469.355C59.6933 473.274 64.1756 475.791 67.9402 476.939C72.0912 478.209 81.2765 477.049 82.4247 476.939C82.9656 479.688 83.5287 482.36 83.9151 484.888C84.2463 486.765 84.5554 488.564 84.8314 490.297H88.5077C88.1544 488.365 87.7791 486.356 87.4037 484.248C86.8517 481.454 86.2114 478.485 85.5269 475.416C88.2918 474.307 90.9901 473.039 93.6082 471.618C96.6332 474.93 104.383 478.716 105.377 479.202C104.273 481.797 103.279 484.314 102.241 486.665C101.701 487.913 101.137 489.094 100.652 490.264H104.538L105.476 488.056C106.58 485.429 107.684 482.603 108.788 479.688C109.892 479.92 118.989 481.764 123.229 480.792C127.07 479.92 131.729 477.745 133.452 473.947C133.887 473.067 134.131 472.106 134.17 471.125C134.208 470.144 134.04 469.166 133.675 468.255C133.311 467.344 132.758 466.519 132.054 465.836C131.35 465.152 130.509 464.624 129.588 464.287C123.99 462.399 115.434 468.758 112.31 473.009C112.122 473.252 110.422 476.199 109.373 478.065C109.826 476.873 110.268 475.725 110.709 474.488C111.603 472.048 112.431 469.597 113.315 466.948C113.701 465.667 114.098 464.353 114.485 463.04C114.871 461.726 115.18 460.324 115.589 458.955C116.351 455.753 116.958 452.474 117.51 449.162C119.641 449.935 127.269 452.585 131.221 452.309C135.174 452.033 140.053 450.587 142.35 447.098C142.913 446.294 143.301 445.381 143.488 444.418C143.676 443.454 143.658 442.462 143.436 441.506C143.214 440.55 142.793 439.651 142.201 438.868C141.609 438.086 140.858 437.437 139.998 436.963C134.754 434.247 125.337 439.248 121.595 442.969C121.363 443.201 118.989 446.171 117.709 447.827C118.018 445.828 118.338 443.841 118.592 441.81C119.32 435.959 119.872 429.997 120.457 424.068C120.634 422.247 120.833 420.436 121.021 418.626C121.771 418.913 130.769 422.258 135.185 421.938C139.115 421.662 144.017 420.216 146.324 416.727C146.888 415.923 147.276 415.01 147.463 414.047C147.65 413.083 147.632 412.091 147.41 411.135C147.188 410.179 146.768 409.28 146.175 408.497C145.583 407.715 144.833 407.065 143.973 406.592C138.729 403.876 129.312 408.866 125.58 412.587C125.293 412.874 121.871 417.157 121.054 418.284C121.473 414.298 121.937 410.324 122.544 406.427C123.26 401.159 124.322 395.944 125.724 390.816C126.077 390.948 135.45 394.481 139.976 394.128C143.906 393.852 148.808 392.406 151.116 388.917C151.679 388.114 152.067 387.2 152.254 386.237C152.441 385.273 152.423 384.281 152.202 383.325C151.98 382.369 151.559 381.47 150.967 380.688C150.374 379.905 149.624 379.256 148.764 378.782C143.509 376.067 134.103 381.068 130.36 384.788C130.073 385.075 126.386 389.679 125.779 390.562C125.867 390.275 125.922 389.955 126.022 389.657C127.634 384.562 129.7 379.622 132.193 374.896C133.54 372.269 134.975 369.829 136.421 367.488C138.099 368.328 145.805 372.07 149.912 372.236C153.842 372.39 158.91 371.496 161.548 368.272C162.198 367.536 162.684 366.671 162.977 365.734C163.27 364.798 163.362 363.809 163.247 362.835C163.133 361.86 162.814 360.92 162.312 360.076C161.81 359.233 161.136 358.505 160.334 357.939C155.41 354.627 145.507 358.601 141.378 361.891C141.157 362.068 139.082 364.099 137.581 365.667C138.254 364.563 138.927 363.525 139.579 362.543C142.052 358.811 144.547 355.565 146.777 352.695C148.057 351.072 149.25 349.637 150.376 348.279C152.451 348.279 160.809 347.992 164.463 346.27C168.117 344.547 172.114 341.478 172.975 337.438C173.21 336.486 173.242 335.495 173.069 334.53C172.896 333.565 172.523 332.647 171.972 331.836C171.421 331.025 170.706 330.338 169.872 329.822C169.039 329.305 168.106 328.97 167.135 328.837C161.261 328.197 154.273 336.245 152.131 341.07C151.944 341.489 149.791 348.334 149.923 348.334H150.045C148.941 349.593 147.759 350.962 146.501 352.474C144.205 355.3 141.632 358.513 139.071 362.189C136.259 366.128 133.679 370.227 131.343 374.466C128.704 379.2 126.487 384.158 124.719 389.281C124.719 389.281 124.719 389.403 124.664 389.469C124.664 387.736 124.664 382.845 124.575 382.525C123.946 377.347 119.552 367.632 113.712 366.528C112.739 366.376 111.744 366.432 110.794 366.692C109.844 366.951 108.959 367.409 108.198 368.034C107.437 368.66 106.817 369.439 106.378 370.321C105.94 371.203 105.692 372.168 105.653 373.152C105.311 377.303 108.325 381.465 111.261 384.093C114.573 387.051 123.781 389.922 124.509 390.143C122.856 395.4 121.557 400.763 120.623 406.195C120.06 409.352 119.585 412.554 119.155 415.766C119.155 414.276 119.155 412.929 119.077 412.741C118.404 407.508 114.021 397.804 108.203 396.733C107.234 396.582 106.244 396.636 105.298 396.893C104.351 397.149 103.469 397.601 102.709 398.221C101.949 398.841 101.328 399.613 100.886 400.489C100.444 401.364 100.191 402.323 100.144 403.302C99.8016 407.464 102.816 411.626 105.752 414.243C108.689 416.859 116.527 419.509 118.603 420.171C118.448 421.408 118.283 422.644 118.139 423.881C117.433 429.809 116.748 435.727 115.931 441.545C115.644 443.587 115.269 445.574 114.915 447.584C114.915 446.248 114.915 445.133 114.838 444.956C114.165 439.723 109.771 430.019 103.964 428.948C102.995 428.795 102.004 428.848 101.057 429.103C100.109 429.359 99.2267 429.812 98.4661 430.432C97.7056 431.051 97.0843 431.825 96.6429 432.701C96.2015 433.577 95.9499 434.537 95.9045 435.517C95.5623 439.679 98.5762 443.841 101.513 446.458C104.449 449.074 111.537 451.47 113.988 452.265C113.557 454.307 113.127 456.338 112.619 458.292C112.244 459.628 111.968 460.931 111.515 462.234L110.268 466.12C109.373 468.56 108.479 471.088 107.552 473.439C106.922 475.084 106.282 476.641 105.653 478.209C105.973 476.188 106.514 472.203 106.525 471.872C106.467 467.216 105.213 462.654 102.882 458.624C102.904 458.106 102.87 457.588 102.782 457.078C102.66 456.105 102.334 455.168 101.826 454.329C101.318 453.49 100.638 452.767 99.8323 452.208C99.0262 451.649 98.1115 451.265 97.1475 451.083C96.1836 450.901 95.1921 450.923 94.2375 451.15C88.5298 452.673 84.9087 462.697 84.6437 467.964C84.6437 468.273 84.8314 471.662 84.986 473.804C84.6989 472.556 84.4339 471.353 84.1248 470.072C83.5287 467.544 82.8552 465.049 82.1487 462.344C81.7512 461.052 81.3648 459.75 80.9564 458.436C80.5479 457.122 80.04 455.786 79.5764 454.44C78.4724 451.359 77.1586 448.279 75.7896 445.21C77.9976 444.68 85.814 442.693 88.9604 440.275C92.1068 437.857 95.3967 433.96 95.3635 429.787C95.3918 428.806 95.2125 427.83 94.8376 426.922C94.4627 426.015 93.9005 425.197 93.1877 424.521C92.475 423.846 91.6278 423.329 90.7015 423.004C89.7752 422.678 88.7906 422.552 87.8122 422.633C81.9389 423.263 76.8495 432.624 75.7786 437.791C75.7123 438.111 75.3701 441.909 75.2155 443.996C74.3765 442.152 73.5485 440.319 72.6322 438.476C70.0157 433.188 67.1895 427.921 64.3964 422.644C63.55 421.032 62.7072 419.417 61.8682 417.798C62.6631 417.621 72.0029 415.457 75.5247 412.752C78.649 410.357 81.961 406.427 81.9279 402.264C81.9558 401.284 81.7768 400.308 81.4026 399.401C81.0285 398.494 80.4675 397.676 79.7562 397C79.0449 396.324 78.1992 395.805 77.2742 395.478C76.3492 395.151 75.3657 395.022 74.3875 395.1C68.5032 395.74 63.4138 405.102 62.3429 410.268C62.2656 410.655 61.7688 416.109 61.7136 417.511C59.87 413.945 58.0594 410.379 56.4144 406.791C54.171 401.965 52.2459 396.997 50.6516 391.92C51.0159 391.843 60.7752 389.624 64.3853 386.853C67.5096 384.457 70.8216 380.538 70.7885 376.365C70.8167 375.383 70.6375 374.407 70.2626 373.5C69.8876 372.592 69.3254 371.774 68.6127 371.099C67.9 370.424 67.0527 369.906 66.1264 369.581C65.2001 369.256 64.2156 369.13 63.2371 369.211C57.3639 369.84 52.2744 379.202 51.2036 384.369C51.1263 384.777 50.5964 390.65 50.5743 391.71C50.486 391.423 50.3535 391.125 50.2651 390.827C48.8083 385.685 47.8108 380.424 47.2844 375.106C46.9532 372.169 46.7986 369.354 46.7213 366.605C48.576 366.373 57.0658 365.247 60.5876 363.117C64.1093 360.986 67.6863 357.53 68.1168 353.39C68.2505 352.418 68.1779 351.428 67.904 350.485C67.63 349.542 67.1608 348.667 66.5267 347.918C65.8926 347.168 65.1078 346.56 64.2235 346.133C63.3391 345.707 62.3749 345.471 61.3935 345.442C55.4871 345.442 49.393 354.174 47.7701 359.186C47.6818 359.462 47.0856 362.333 46.6661 364.441C46.6661 363.194 46.5999 361.913 46.5999 360.721C46.5999 356.305 46.898 352.165 47.174 348.577C47.3506 346.524 47.5493 344.669 47.7591 342.924C49.4592 341.754 56.293 336.93 58.4016 333.485C60.5103 330.041 62.1221 325.26 60.6096 321.341C60.2795 320.417 59.7588 319.573 59.0812 318.863C58.4036 318.153 57.5843 317.594 56.6765 317.221C55.7687 316.848 54.7927 316.671 53.8118 316.7C52.8308 316.729 51.867 316.963 50.9828 317.389C45.7388 320.094 44.3587 330.637 45.2199 335.87C45.2971 336.312 47.2843 343.212 47.4279 343.156L47.5272 343.079C47.2954 344.746 47.0746 346.535 46.8648 348.5C46.5005 352.121 46.1251 356.228 46.0258 360.699C45.8547 365.53 45.969 370.366 46.368 375.183C46.7862 380.581 47.684 385.931 49.0508 391.169C49.0556 391.232 49.0556 391.294 49.0508 391.357C48.1234 389.9 45.3855 385.903 45.1426 385.616C41.6981 381.631 32.6784 375.945 27.2468 378.252C26.3544 378.661 25.558 379.254 24.9094 379.99C24.2608 380.727 23.7744 381.592 23.4818 382.529C23.1893 383.466 23.0971 384.454 23.2113 385.429C23.3254 386.404 23.6434 387.344 24.1445 388.188C26.1648 391.843 30.9783 393.653 34.8754 394.216Z" fill="black"/>
<path d="M136.178 366.462C136.267 366.517 138.066 359.573 138.132 359.12C138.85 353.898 137.194 343.377 131.873 340.805C130.977 340.402 130.007 340.192 129.025 340.189C128.042 340.186 127.071 340.39 126.173 340.788C125.275 341.186 124.471 341.769 123.813 342.498C123.156 343.228 122.659 344.088 122.356 345.022C120.932 348.93 122.743 353.744 124.884 357.056C127.391 360.931 136.167 366.462 136.178 366.462Z" fill="black"/>
</g>
<g opacity="0.3">
<path d="M239.137 71.219C243.377 73.0738 253.743 72.8419 253.754 72.8419C253.765 72.8419 251.546 66.0523 251.326 65.6328C249.051 60.8746 241.853 53.0141 236.002 53.809C235.034 53.9687 234.11 54.3303 233.291 54.8701C232.471 55.41 231.774 56.1162 231.246 56.9428C230.717 57.7694 230.368 58.6979 230.221 59.6682C230.074 60.6384 230.133 61.6287 230.394 62.5747C231.365 66.6264 235.527 69.6403 239.137 71.219Z" fill="black"/>
<path d="M242.714 101.259C247.13 101.899 256.371 99.2165 257.066 99.0509C258.621 104.329 260.52 109.5 262.752 114.529C264.022 117.477 265.391 120.402 266.815 123.361C265.965 122.124 265.203 121.032 265.081 120.888C261.626 116.903 252.617 111.217 247.175 113.524C246.282 113.933 245.486 114.525 244.837 115.262C244.189 115.999 243.702 116.864 243.41 117.801C243.117 118.738 243.025 119.726 243.139 120.701C243.253 121.676 243.571 122.616 244.072 123.46C246.082 127.115 250.895 128.925 254.792 129.488C258.689 130.051 266.682 127.943 268.78 127.346C269.332 128.45 269.884 129.554 270.436 130.658C273.119 135.991 275.812 141.301 278.296 146.6C279.169 148.466 279.963 150.332 280.769 152.197C280.019 151.093 279.378 150.188 279.268 150.056C275.812 146.059 266.804 140.385 261.361 142.692C260.469 143.101 259.672 143.693 259.024 144.43C258.375 145.167 257.889 146.032 257.596 146.969C257.304 147.906 257.211 148.894 257.325 149.869C257.44 150.844 257.758 151.784 258.259 152.628C260.279 156.282 265.081 158.093 268.979 158.656C272.876 159.219 280.096 157.309 282.591 156.613C283.353 158.556 284.125 160.488 284.799 162.398C285.218 163.712 285.704 164.949 286.046 166.296C286.389 167.642 286.786 168.934 287.15 170.226C287.758 172.754 288.398 175.348 288.917 177.832C289.303 179.555 289.634 181.2 290.021 182.856C289.16 180.99 287.426 177.336 287.239 177.082C284.435 172.666 276.386 165.633 270.679 167.146C269.736 167.416 268.86 167.882 268.109 168.512C267.358 169.143 266.747 169.924 266.317 170.806C265.887 171.688 265.648 172.65 265.613 173.63C265.579 174.611 265.752 175.587 266.119 176.496C267.543 180.416 272.026 182.933 275.79 184.081C279.941 185.351 289.127 184.191 290.275 184.081C290.827 186.83 291.379 189.502 291.776 192.03C292.107 193.907 292.405 195.706 292.681 197.439H296.358C296.019 195.518 295.651 193.502 295.254 191.389C294.713 188.607 294.073 185.638 293.388 182.557C296.15 181.451 298.845 180.183 301.458 178.76C304.483 182.072 312.233 185.869 313.238 186.355C312.134 188.95 311.129 191.456 310.103 193.807C309.562 195.055 308.999 196.236 308.513 197.406H312.399C312.708 196.667 313.017 195.938 313.326 195.198C314.43 192.571 315.534 189.733 316.638 186.819C317.742 187.051 326.839 188.894 331.079 187.923C334.921 187.051 339.579 184.876 341.302 181.078C341.737 180.198 341.981 179.237 342.02 178.256C342.058 177.275 341.89 176.297 341.525 175.386C341.161 174.474 340.609 173.65 339.904 172.966C339.2 172.283 338.359 171.755 337.438 171.418C331.84 169.53 323.295 175.889 320.16 180.14C319.972 180.394 318.272 183.33 317.234 185.207C317.676 184.015 318.129 182.856 318.57 181.619C319.465 179.179 320.281 176.728 321.176 174.09L322.346 170.171C322.765 168.879 323.041 167.455 323.395 166.086C324.156 162.884 324.775 159.605 325.327 156.293C327.457 157.066 335.075 159.727 339.027 159.44C342.98 159.153 347.859 157.728 350.167 154.229C350.73 153.425 351.118 152.512 351.305 151.548C351.493 150.585 351.475 149.593 351.253 148.637C351.031 147.681 350.61 146.782 350.018 145.999C349.426 145.217 348.675 144.567 347.815 144.094C342.56 141.389 333.154 146.379 329.412 150.1C329.18 150.332 326.795 153.301 325.514 154.957C325.835 152.959 326.155 150.972 326.409 148.941C327.137 143.089 327.689 137.139 328.263 131.199C328.44 129.378 328.639 127.578 328.826 125.757C329.588 126.044 338.575 129.389 343.002 129.069C346.932 128.793 351.834 127.346 354.141 123.858C354.703 123.054 355.09 122.14 355.276 121.177C355.462 120.214 355.444 119.222 355.222 118.267C355 117.311 354.58 116.413 353.989 115.63C353.397 114.847 352.648 114.198 351.79 113.723C346.535 111.018 337.129 116.008 333.386 119.729C333.099 120.005 329.677 124.288 328.86 125.414C329.29 121.429 329.743 117.455 330.35 113.557C331.151 108.29 332.29 103.079 333.761 97.9579C334.115 98.0904 343.477 101.623 348.003 101.27C351.933 100.994 356.835 99.5587 359.142 96.059C359.704 95.242 360.086 94.3148 360.261 93.339C360.437 92.3633 360.403 91.3612 360.162 90.3995C359.921 89.4378 359.478 88.5384 358.862 87.7611C358.247 86.9838 357.473 86.3464 356.592 85.8912C351.348 83.1864 341.931 88.1765 338.188 91.897C337.901 92.184 334.225 96.7987 333.618 97.6819C333.706 97.3838 333.761 97.0637 333.85 96.7656C335.473 91.6733 337.542 86.7341 340.032 82.0051C341.379 79.3776 342.803 76.9378 344.249 74.5973C345.927 75.4363 353.633 79.1789 357.74 79.3445C361.681 79.499 366.738 78.6048 369.387 75.3811C370.036 74.6442 370.522 73.7788 370.814 72.8415C371.106 71.9041 371.197 70.9158 371.081 69.9409C370.966 68.9659 370.646 68.0263 370.143 67.1832C369.64 66.3401 368.965 65.6125 368.162 65.0477C363.238 61.7357 353.335 65.7101 349.217 69C348.985 69.1766 346.91 71.208 345.42 72.7757C346.082 71.6717 346.755 70.6339 347.418 69.6514C349.891 65.9309 352.386 62.6741 354.616 59.8037C355.896 58.1918 357.078 56.7456 358.215 55.3877C360.29 55.3877 368.648 55.1006 372.302 53.3894C375.956 51.6782 379.953 48.576 380.88 44.5243C381.115 43.5717 381.147 42.5802 380.974 41.6144C380.8 40.6486 380.425 39.7301 379.873 38.9188C379.321 38.1075 378.605 37.4216 377.77 36.9056C376.935 36.3897 376.001 36.0552 375.029 35.9242C369.1 35.328 362.112 43.343 359.97 48.1565C359.794 48.576 357.641 55.4208 357.762 55.4208H357.895C356.791 56.6794 355.598 58.0483 354.351 59.5718C352.044 62.387 349.482 65.5997 346.921 69.287C344.103 73.2179 341.522 77.3137 339.193 81.5525C336.547 86.2832 334.33 91.2416 332.569 96.3682C332.569 96.3682 332.569 96.4896 332.569 96.5558C332.569 94.8226 332.569 89.987 332.47 89.6117C331.796 84.3787 327.413 74.6746 321.606 73.5926C320.632 73.4392 319.637 73.4936 318.685 73.7524C317.733 74.0112 316.847 74.4684 316.085 75.0941C315.323 75.7197 314.702 76.4997 314.262 77.3825C313.823 78.2654 313.575 79.2313 313.536 80.2166C313.194 84.3677 316.208 88.5298 319.155 91.1573C322.467 94.116 331.664 96.9864 332.403 97.2072C330.756 102.467 329.458 107.829 328.517 113.259C327.954 116.417 327.491 119.618 327.06 122.842C327.06 121.341 327.005 120.005 326.983 119.817C326.298 114.584 321.915 104.869 316.108 103.798C315.135 103.646 314.141 103.702 313.19 103.962C312.24 104.221 311.355 104.679 310.594 105.304C309.833 105.93 309.213 106.709 308.775 107.591C308.336 108.473 308.089 109.438 308.049 110.422C307.707 114.573 310.721 118.735 313.657 121.363C316.594 123.99 324.432 126.629 326.497 127.28C326.353 128.517 326.188 129.753 326.033 130.99C325.327 136.918 324.653 142.836 323.825 148.654C323.527 150.696 323.163 152.694 322.799 154.692C322.799 153.357 322.743 152.242 322.721 152.076C322.048 146.843 317.665 137.128 311.858 136.057C310.884 135.905 309.889 135.961 308.938 136.221C307.987 136.48 307.102 136.937 306.34 137.563C305.578 138.188 304.957 138.967 304.517 139.849C304.077 140.731 303.829 141.696 303.788 142.681C303.445 146.832 306.459 150.994 309.407 153.622C312.355 156.249 319.42 158.623 321.882 159.418C321.452 161.46 321.021 163.502 320.513 165.456C320.127 166.781 319.862 168.084 319.409 169.398C318.957 170.712 318.57 171.992 318.151 173.273C317.268 175.713 316.362 178.241 315.435 180.592C314.806 182.237 314.176 183.794 313.547 185.362C313.867 183.341 314.408 179.356 314.408 179.025C314.358 174.37 313.107 169.806 310.776 165.777C310.787 165.26 310.754 164.742 310.677 164.231C310.554 163.257 310.228 162.32 309.72 161.481C309.212 160.641 308.533 159.918 307.727 159.358C306.921 158.798 306.007 158.414 305.043 158.23C304.079 158.046 303.087 158.067 302.132 158.292C296.413 159.815 292.792 169.839 292.527 175.105C292.527 175.415 292.715 178.804 292.88 180.946C292.593 179.698 292.328 178.495 292.019 177.214C291.412 174.697 290.738 172.191 290.032 169.486C289.645 168.194 289.248 166.892 288.851 165.578C288.453 164.264 287.923 162.928 287.471 161.581C286.367 158.501 285.042 155.421 283.673 152.363C285.881 151.833 293.708 149.835 296.844 147.428C299.979 145.021 303.28 141.102 303.258 136.929C303.284 135.948 303.104 134.973 302.728 134.066C302.353 133.16 301.791 132.342 301.078 131.667C300.366 130.993 299.519 130.475 298.594 130.149C297.668 129.823 296.684 129.696 295.706 129.775C289.833 130.416 284.733 139.711 283.673 144.933C283.607 145.253 283.253 149.051 283.099 151.138C282.26 149.305 281.432 147.461 280.526 145.618C277.899 140.329 275.084 135.063 272.291 129.797C271.429 128.185 270.601 126.563 269.762 124.951C270.546 124.763 279.897 122.599 283.408 119.894C286.532 117.499 289.855 113.58 289.822 109.406C289.849 108.425 289.668 107.45 289.293 106.543C288.917 105.637 288.355 104.82 287.642 104.145C286.93 103.47 286.084 102.953 285.158 102.627C284.233 102.301 283.249 102.173 282.271 102.252C276.397 102.882 271.297 112.188 270.237 117.41C270.149 117.797 269.663 123.262 269.608 124.653C267.753 121.087 265.943 117.521 264.298 113.933C262.06 109.101 260.135 104.13 258.535 99.0509C258.899 98.9626 268.669 96.7435 272.269 93.9835C275.393 91.5768 278.716 87.6576 278.683 83.4845C278.709 82.5036 278.529 81.5281 278.153 80.6215C277.778 79.715 277.216 78.8976 276.503 78.2228C275.791 77.5479 274.944 77.0306 274.019 76.7046C273.093 76.3786 272.109 76.2511 271.131 76.3306C265.258 76.9709 260.158 86.2666 259.098 91.4885C259.009 91.897 258.48 97.7702 258.469 98.8411C258.369 98.543 258.248 98.245 258.159 97.9579C256.699 92.8126 255.698 87.548 255.168 82.2259C254.836 79.3003 254.693 76.4741 254.605 73.7251C256.47 73.4933 264.96 72.3672 268.471 70.2365C271.981 68.1058 275.569 64.6613 276 60.5102C276.134 59.5384 276.061 58.5493 275.788 57.6072C275.515 56.6651 275.046 55.7909 274.414 55.0414C273.781 54.2919 272.997 53.6839 272.114 53.2566C271.231 52.8294 270.268 52.5925 269.288 52.5614C263.37 52.5614 257.276 61.2941 255.653 66.3173C255.565 66.5822 254.969 69.4637 254.549 71.5613C254.549 70.3138 254.483 69.0331 254.494 67.8518C254.494 63.4358 254.781 59.2848 255.057 55.7078C255.234 53.6544 255.433 51.7997 255.642 50.0664C257.353 48.8851 264.187 44.0606 266.285 40.6162C268.382 37.1717 270.016 32.3914 268.493 28.4722C268.164 27.5484 267.644 26.7042 266.968 25.9944C266.291 25.2846 265.473 24.7252 264.566 24.3524C263.659 23.9796 262.684 23.8019 261.704 23.8307C260.724 23.8596 259.76 24.0944 258.877 24.5198C253.622 27.2357 252.253 37.7678 253.114 43.0008C253.191 43.4534 255.168 50.3424 255.256 50.2872L255.366 50.221C255.134 51.877 254.903 53.6765 254.693 55.6306C254.329 59.2517 253.964 63.3586 253.854 67.8298C253.694 72.6642 253.808 77.5038 254.196 82.3253C254.61 87.7038 255.5 93.0349 256.857 98.256C256.868 98.3203 256.887 98.3832 256.912 98.4437C255.985 96.9864 253.247 92.9899 253.004 92.7029C249.504 88.6622 240.54 82.9877 235.152 85.295C234.258 85.7027 233.461 86.2941 232.811 87.0308C232.162 87.7674 231.675 88.6327 231.382 89.5702C231.089 90.5077 230.997 91.4964 231.112 92.4718C231.228 93.4472 231.547 94.3874 232.05 95.231C234.048 98.8853 238.817 100.685 242.714 101.259Z" fill="black"/>
<path d="M344.017 73.5043C344.117 73.5043 345.905 66.6043 345.972 66.1517C346.7 60.9298 345.033 50.4086 339.712 47.8363C338.817 47.4332 337.847 47.2234 336.866 47.2206C335.884 47.2179 334.914 47.4221 334.016 47.8201C333.119 48.2181 332.316 48.8009 331.66 49.5304C331.003 50.2599 330.508 51.1197 330.206 52.0536C328.771 55.9728 330.582 60.7752 332.724 64.0872C335.241 67.9733 344.017 73.4933 344.017 73.5043Z" fill="black"/>
</g>
<path d="M277.369 71.6606H70.4021C63.2135 71.6606 57.3859 77.4882 57.3859 84.6768V361.416C57.3859 368.605 63.2135 374.433 70.4021 374.433H277.369C284.558 374.433 290.385 368.605 290.385 361.416V84.6768C290.385 77.4882 284.558 71.6606 277.369 71.6606Z" fill="#263238"/>
<path d="M279.246 89.5675H68.5363V360.07H279.246V89.5675Z" fill="white" stroke="#263238" stroke-linecap="round" stroke-linejoin="round"/>
<path d="M131.1 130.073H216.682" stroke="#263238" stroke-linecap="round" stroke-linejoin="round"/>
<path d="M91.7534 188.309C99.5762 188.309 105.918 181.968 105.918 174.145C105.918 166.322 99.5762 159.981 91.7534 159.981C83.9307 159.981 77.5891 166.322 77.5891 174.145C77.5891 181.968 83.9307 188.309 91.7534 188.309Z" stroke="#263238" stroke-linecap="round" stroke-linejoin="round"/>
<path d="M112.398 175.326H256.978" stroke="#263238" stroke-linecap="round" stroke-linejoin="round"/>
<path d="M85.847 170.612L91.1573 178.87L108.269 156.448" stroke="#38B6FF" stroke-width="4" stroke-linecap="round" stroke-linejoin="round"/>
<path d="M95.0039 222.759C102.617 220.962 107.333 213.333 105.536 205.719C103.739 198.106 96.1101 193.391 88.4965 195.188C80.883 196.985 76.1677 204.613 77.9647 212.227C79.7616 219.84 87.3903 224.556 95.0039 222.759Z" stroke="#263238" stroke-linecap="round" stroke-linejoin="round"/>
<path d="M112.398 210.146H256.978" stroke="#263238" stroke-linecap="round" stroke-linejoin="round"/>
<path d="M85.847 205.421L91.1573 213.69L108.269 191.257" stroke="#38B6FF" stroke-width="4" stroke-linecap="round" stroke-linejoin="round"/>
<path d="M94.9984 257.575C102.612 255.778 107.327 248.149 105.53 240.536C103.733 232.922 96.1046 228.207 88.4911 230.004C80.8775 231.801 76.1622 239.43 77.9592 247.043C79.7562 254.657 87.3849 259.372 94.9984 257.575Z" stroke="#263238" stroke-linecap="round" stroke-linejoin="round"/>
<path d="M112.398 244.967H256.978" stroke="#263238" stroke-linecap="round" stroke-linejoin="round"/>
<path d="M85.847 240.241L91.1573 248.499L108.269 226.077" stroke="#38B6FF" stroke-width="4" stroke-linecap="round" stroke-linejoin="round"/>
<path d="M101.765 288.611C107.296 283.079 107.296 274.111 101.765 268.58C96.2333 263.048 87.2649 263.048 81.7334 268.58C76.2019 274.111 76.2019 283.079 81.7334 288.611C87.2649 294.142 96.2333 294.142 101.765 288.611Z" stroke="#263238" stroke-linecap="round" stroke-linejoin="round"/>
<path d="M112.398 279.776H256.978" stroke="#263238" stroke-linecap="round" stroke-linejoin="round"/>
<path d="M85.847 275.062L91.1573 283.32L108.269 260.897" stroke="#38B6FF" stroke-width="4" stroke-linecap="round" stroke-linejoin="round"/>
<path d="M91.7534 327.579C99.5762 327.579 105.918 321.237 105.918 313.415C105.918 305.592 99.5762 299.25 91.7534 299.25C83.9307 299.25 77.5891 305.592 77.5891 313.415C77.5891 321.237 83.9307 327.579 91.7534 327.579Z" stroke="#263238" stroke-linecap="round" stroke-linejoin="round"/>
<path d="M112.398 314.596H256.978" stroke="#263238" stroke-linecap="round" stroke-linejoin="round"/>
<path d="M85.847 309.871L91.1573 318.14L108.269 295.706" stroke="#38B6FF" stroke-width="4" stroke-linecap="round" stroke-linejoin="round"/>
<path d="M201.646 65.5445C200.625 65.5271 199.628 65.2361 198.759 64.7016C197.89 64.1672 197.18 63.4091 196.704 62.5065C196.228 61.6039 196.003 60.59 196.052 59.5708C196.102 58.5515 196.425 57.5644 196.987 56.7125C198.882 53.6777 199.927 50.1892 200.012 46.6121C200.097 43.035 199.219 39.5008 197.47 36.3794C195.721 33.2581 193.164 30.6643 190.069 28.8697C186.973 27.075 183.452 26.1455 179.874 26.1784C176.296 26.2112 172.793 27.2053 169.731 29.0565C166.669 30.9076 164.161 33.5479 162.469 36.7009C160.777 39.8538 159.964 43.4036 160.115 46.9785C160.266 50.5535 161.375 54.0222 163.326 57.0216C163.852 57.8784 164.14 58.8606 164.158 59.866C164.177 60.8715 163.926 61.8636 163.431 62.7391C162.936 63.6147 162.216 64.3418 161.345 64.8448C160.474 65.3479 159.485 65.6085 158.479 65.5997H123.769L133.153 92.5483H226.993L236.377 65.5997L201.646 65.5445ZM180.062 54.096C178.68 54.0982 177.328 53.6902 176.177 52.9236C175.026 52.1571 174.129 51.0664 173.598 49.7897C173.068 48.5129 172.928 47.1074 173.196 45.7511C173.464 44.3948 174.129 43.1485 175.106 42.1701C176.083 41.1917 177.328 40.525 178.684 40.2545C180.04 39.9839 181.446 40.1217 182.723 40.6503C184.001 41.1789 185.093 42.0746 185.861 43.224C186.63 44.3735 187.04 45.7251 187.04 47.1077C187.04 48.9592 186.305 50.735 184.997 52.0453C183.689 53.3555 181.914 54.0931 180.062 54.096Z" fill="white" stroke="#263238" stroke-linecap="round" stroke-linejoin="round"/>
<path d="M292.847 490.286H414.773V381.123H292.847V490.286Z" fill="#38B6FF" stroke="#263238" stroke-linecap="round" stroke-linejoin="round"/>
<path d="M292.858 490.286H332.116V381.123H292.858V490.286Z" fill="#263238" stroke="#263238" stroke-linecap="round" stroke-linejoin="round"/>
<path d="M307.221 410.898H317.753V381.123H307.221V410.898Z" fill="white" stroke="#263238" stroke-linecap="round" stroke-linejoin="round"/>
<path d="M389.469 403.656H407.63V392.527H389.469V403.656Z" stroke="#263238" stroke-linecap="round" stroke-linejoin="round"/>
<path d="M206.79 490.286H328.716V381.123H206.79V490.286Z" fill="#38B6FF" stroke="#263238" stroke-linecap="round" stroke-linejoin="round"/>
<path d="M206.801 490.286H246.06V381.123H206.801V490.286Z" fill="#263238" stroke="#263238" stroke-linecap="round" stroke-linejoin="round"/>
<path d="M221.164 410.898H231.696V381.123H221.164V410.898Z" fill="white" stroke="#263238" stroke-linecap="round" stroke-linejoin="round"/>
<path d="M302.474 403.656H320.635V392.527H302.474V403.656Z" stroke="#263238" stroke-linecap="round" stroke-linejoin="round"/>
<path d="M119.42 490.286H241.345V381.123H119.42L119.42 490.286Z" fill="#38B6FF" stroke="#263238" stroke-linecap="round" stroke-linejoin="round"/>
<path d="M119.42 490.286H158.678V381.123H119.42L119.42 490.286Z" fill="#263238" stroke="#263238" stroke-linecap="round" stroke-linejoin="round"/>
<path d="M133.783 410.898H144.315V381.123H133.783V410.898Z" fill="white" stroke="#263238" stroke-linecap="round" stroke-linejoin="round"/>
<path d="M216.947 403.656H235.108V392.527H216.947V403.656Z" stroke="#263238" stroke-linecap="round" stroke-linejoin="round"/>
<path d="M251.083 381.001H373.008V271.838H251.083V381.001Z" fill="#38B6FF" stroke="#263238" stroke-linecap="round" stroke-linejoin="round"/>
<path d="M251.094 381.001H290.352V271.838H251.094V381.001Z" fill="#263238" stroke="#263238" stroke-linecap="round" stroke-linejoin="round"/>
<path d="M265.457 301.602H275.989V271.827H265.457V301.602Z" fill="white" stroke="#263238" stroke-linecap="round" stroke-linejoin="round"/>
<path d="M356.084 335.715H368.383V273.03H356.084V335.715Z" stroke="#263238" stroke-linecap="round" stroke-linejoin="round"/>
<path d="M220.005 271.628H341.931V162.465H220.005V271.628Z" fill="#38B6FF" stroke="#263238" stroke-linecap="round" stroke-linejoin="round"/>
<path d="M220.005 271.628H259.263V162.465H220.005V271.628Z" fill="#263238" stroke="#263238" stroke-linecap="round" stroke-linejoin="round"/>
<path d="M234.357 192.24H244.889V162.465H234.357V192.24Z" fill="white" stroke="#263238" stroke-linecap="round" stroke-linejoin="round"/>
<path d="M323.858 226.276H336.157V163.591H323.858V226.276Z" stroke="#263238" stroke-linecap="round" stroke-linejoin="round"/>
<path d="M162.1 381.001H284.026V271.838H162.1V381.001Z" fill="#38B6FF" stroke="#263238" stroke-linecap="round" stroke-linejoin="round"/>
<path d="M162.111 381.001H201.37V271.838H162.111V381.001Z" fill="#263238" stroke="#263238" stroke-linecap="round" stroke-linejoin="round"/>
<path d="M176.474 301.602H187.007V271.827H176.474V301.602Z" fill="white" stroke="#263238" stroke-linecap="round" stroke-linejoin="round"/>
<path d="M264.695 335.715H276.994V273.03H264.695V335.715Z" stroke="#263238" stroke-linecap="round" stroke-linejoin="round"/>
<path d="M402.894 244.9C402.936 244.75 403.01 244.61 403.111 244.49C403.211 244.371 403.336 244.274 403.477 244.206C403.618 244.138 403.772 244.101 403.928 244.097C404.085 244.093 404.24 244.122 404.384 244.183L411.428 247.318L403.887 240.197C403.646 240.011 403.488 239.737 403.449 239.435C403.409 239.133 403.492 238.827 403.678 238.585C403.863 238.344 404.138 238.186 404.44 238.147C404.742 238.107 405.048 238.19 405.289 238.376L413.503 243.509L408.745 237.669C408.587 237.455 408.511 237.192 408.532 236.927C408.553 236.662 408.668 236.413 408.858 236.227C409.047 236.04 409.297 235.928 409.562 235.911C409.828 235.894 410.09 235.974 410.302 236.135L419.774 244.139L418.88 240.65C418.803 240.319 418.852 239.971 419.019 239.675C419.186 239.379 419.458 239.156 419.781 239.051C420.104 238.945 420.455 238.965 420.764 239.106C421.074 239.247 421.319 239.498 421.452 239.811C422.059 241.334 423.218 244.227 423.66 245.143C424.432 246.828 424.913 248.631 425.084 250.476C425.007 251.58 424.996 254.075 424.996 254.075L442.704 268.007L444.073 266.384L448.864 270.922L448.721 272.71L453.082 276.022C453.082 276.022 482.304 261.173 486.113 260.919C489.922 260.665 495.199 267.345 492.914 274.035C490.629 280.725 451.967 291.268 450.697 291.357C449.427 291.445 421.54 258.866 421.54 258.866C419.211 257.999 416.937 256.992 414.729 255.852C412.995 254.814 405.952 252.01 403.689 251.127C403.502 251.048 403.352 250.902 403.268 250.718C403.185 250.534 403.173 250.326 403.236 250.133C403.299 249.945 403.431 249.788 403.604 249.692C403.778 249.596 403.981 249.568 404.174 249.614L410.026 250.994L403.247 246.026C403.088 245.891 402.97 245.714 402.907 245.515C402.845 245.315 402.84 245.102 402.894 244.9Z" fill="#263238" stroke="#263238" stroke-linecap="round" stroke-linejoin="round"/>
<path d="M336.234 406.051L345.949 398.279L357.84 388.774L392.439 361.085L392.704 361.262L392.737 361.284L392.759 361.306L426.917 384.954L439.105 393.388L449.273 400.432L408.06 223.681L405.687 223.748L402.662 223.825L361.836 224.929L336.234 406.051Z" fill="#263238" stroke="#263238" stroke-linecap="round" stroke-linejoin="round"/>
<path d="M392.527 361.118L392.549 361.085L392.748 361.306L392.527 361.118Z" fill="white" stroke="#263238" stroke-linecap="round" stroke-linejoin="round"/>
<path d="M345.949 398.279L357.84 388.774L372.788 224.929L392.759 224.101L366.649 224.929L345.949 398.279Z" fill="white" stroke="#263238" stroke-linecap="round" stroke-linejoin="round"/>
<path d="M402.651 223.781L402.662 223.825L426.917 384.954L439.105 393.388L405.687 223.748L405.676 223.681L402.651 223.781Z" fill="white" stroke="#263238" stroke-linecap="round" stroke-linejoin="round"/>
<path d="M315.313 205.62C315.313 203.191 311.24 200.586 311.483 198.223C311.725 195.861 316.263 194.094 316.76 191.776C317.257 189.457 313.812 186.013 314.552 183.739C315.291 181.464 320.072 180.725 321.054 178.539C322.037 176.353 319.376 172.301 320.58 170.226C321.783 168.15 326.618 168.426 328.02 166.494C329.423 164.562 327.678 160.047 329.279 158.269C330.88 156.492 335.561 157.762 337.338 156.161C339.116 154.56 338.332 149.78 340.275 148.367C342.218 146.953 346.512 149.172 348.588 147.969C350.664 146.766 350.884 141.941 353.081 140.959C355.278 139.976 358.999 143.045 361.295 142.306C363.591 141.566 364.795 136.885 367.157 136.388C369.52 135.891 372.501 139.7 374.885 139.424C377.27 139.148 379.423 134.854 381.84 134.854C384.258 134.854 386.444 139.181 388.807 139.424C391.169 139.667 394.238 135.891 396.535 136.388C398.831 136.885 400.134 141.566 402.397 142.306C404.66 143.045 408.436 139.987 410.611 140.959C412.786 141.93 413.084 146.832 415.104 147.936C417.124 149.04 421.485 146.92 423.417 148.333C425.349 149.747 424.576 154.527 426.354 156.128C428.131 157.728 432.801 156.459 434.413 158.236C436.025 160.014 434.258 164.529 435.672 166.461C437.085 168.393 441.909 168.117 443.112 170.193C444.316 172.268 441.655 176.309 442.638 178.506C443.62 180.703 448.401 181.42 449.14 183.717C449.88 186.013 446.436 189.38 446.932 191.743C447.429 194.105 451.956 195.783 452.198 198.19C452.441 200.597 448.379 203.158 448.379 205.587C448.379 208.016 452.452 210.621 452.198 212.984C451.944 215.346 447.429 217.102 446.932 219.431C446.436 221.76 449.88 225.194 449.14 227.457C448.401 229.72 443.62 230.482 442.638 232.657C441.655 234.832 444.316 238.906 443.112 240.97C441.909 243.035 437.074 242.77 435.672 244.702C434.269 246.634 436.014 251.16 434.413 252.937C432.812 254.715 428.131 253.434 426.354 255.046C424.576 256.658 425.36 261.427 423.417 262.84C421.474 264.253 417.18 262.023 415.104 263.227C413.028 264.43 412.808 269.266 410.611 270.248C408.414 271.231 404.682 268.151 402.397 268.901C400.112 269.652 398.897 274.311 396.535 274.808C394.172 275.304 391.191 271.496 388.807 271.772C386.422 272.048 384.269 276.342 381.84 276.342C379.412 276.342 377.248 272.026 374.885 271.772C372.523 271.518 369.454 275.304 367.157 274.808C364.861 274.311 363.558 269.63 361.295 268.89C359.032 268.151 355.256 271.209 353.081 270.237C350.906 269.266 350.652 264.43 348.588 263.227C346.524 262.023 342.207 264.242 340.275 262.829C338.343 261.416 339.116 256.647 337.338 255.101C335.561 253.556 330.88 254.77 329.279 252.993C327.678 251.215 329.434 246.7 328.02 244.757C326.607 242.814 321.783 243.101 320.58 241.025C319.376 238.95 322.037 234.909 321.054 232.712C320.072 230.515 315.291 229.798 314.552 227.512C313.812 225.227 317.257 221.849 316.76 219.486C316.263 217.124 311.736 215.446 311.494 213.039C311.251 210.632 315.313 208.038 315.313 205.62Z" fill="white" stroke="#263238" stroke-linecap="round" stroke-linejoin="round"/>
<path d="M381.863 262.2C413.111 262.2 438.443 236.868 438.443 205.62C438.443 174.372 413.111 149.04 381.863 149.04C350.614 149.04 325.283 174.372 325.283 205.62C325.283 236.868 350.614 262.2 381.863 262.2Z" fill="#38B6FF" stroke="#263238" stroke-linecap="round" stroke-linejoin="round"/>
<path d="M430.628 217.376C437.118 190.448 420.549 163.356 393.62 156.867C366.691 150.377 339.6 166.946 333.11 193.874C326.62 220.803 343.189 247.894 370.118 254.384C397.047 260.874 424.138 244.305 430.628 217.376Z" fill="#263238"/>
<path d="M503.788 391.92C503.788 391.92 502.828 400.056 504.02 403.402C505.212 406.747 512.852 429.732 514.078 450.068C515.303 470.403 516.462 489.083 515.745 490.044C515.027 491.004 510.721 490.518 510.721 490.518H496.369C496.047 490.274 495.822 489.925 495.733 489.531C495.644 489.137 495.698 488.724 495.884 488.365C496.601 487.173 503.545 481.907 504.506 480.229C505.444 478.744 506.168 477.135 506.659 475.449C506.659 474.731 504.981 457.244 499.24 445.762C493.499 434.28 486.08 406.018 485.363 395.74L503.788 391.92Z" fill="white" stroke="#263238" stroke-linecap="round" stroke-linejoin="round"/>
<path d="M495.884 488.376C497.449 486.734 499.127 485.203 500.907 483.795V486.224H515.954C516.076 487.504 516.006 488.795 515.745 490.055C515.027 491.015 510.721 490.529 510.721 490.529H496.369C496.047 490.285 495.822 489.936 495.733 489.542C495.644 489.148 495.698 488.735 495.884 488.376Z" fill="#38B6FF" stroke="#263238" stroke-linecap="round" stroke-linejoin="round"/>
<path d="M488.465 393.123C488.465 393.123 485.153 417.058 487.515 424.234C489.878 431.41 488.951 444.338 485.594 457.972C482.238 471.607 479.622 480.229 479.622 480.947C479.622 481.664 479.622 488.123 478.904 489.315C478.187 490.507 457.122 490.275 455.72 490.275C454.318 490.275 452.85 488.84 454.053 487.405C455.256 485.97 461.715 484.402 466.009 482.382C470.083 480.461 470.315 479.986 470.315 479.986C470.315 479.986 472.711 451.989 471.75 439.547C470.79 427.105 465.513 401.26 466.473 392.649L488.465 393.123Z" fill="white" stroke="#263238" stroke-linecap="round" stroke-linejoin="round"/>
<path d="M455.687 490.275C454.252 490.275 452.817 488.84 454.02 487.405C454.98 486.246 459.363 485.009 463.272 483.508L464.066 485.252L479.522 484.093C479.445 486.168 479.268 488.63 478.86 489.315C478.187 490.518 457.122 490.275 455.687 490.275Z" fill="#38B6FF" stroke="#263238" stroke-linecap="round" stroke-linejoin="round"/>
<path d="M501.834 311.957C501.834 311.957 510.004 329.721 510.721 340.485C511.439 351.249 506.891 362.973 506.891 362.973L509.761 393.885C509.761 393.885 500.189 399.869 484.159 399.626C468.129 399.383 460.236 396.756 460.236 396.756C460.236 396.756 458.326 359.22 463.349 341.004C468.372 322.788 466.584 312.907 466.584 312.907C466.584 312.907 488.873 313.823 501.834 311.957Z" fill="#263238" stroke="#263238" stroke-linecap="round" stroke-linejoin="round"/>
<path d="M471.408 243.266C471.408 243.266 473.748 250.994 474.643 255.311C475.537 259.628 473.207 267.897 470.149 273.648C467.091 279.4 463.669 285.528 465.292 290.738C466.915 295.949 467.632 297.936 467.632 297.936C467.632 297.936 466.374 310.699 466.528 312.863C466.683 315.026 475.879 317.179 485.053 316.274C494.228 315.369 501.061 313.58 501.779 311.957C502.497 310.334 501.779 301.348 503.038 296.678C504.296 292.008 504.66 270.182 501.779 265.556C498.898 260.93 492.252 253.512 492.252 253.512L486.864 239.303L471.408 243.266Z" fill="#38B6FF" stroke="#263238" stroke-linecap="round" stroke-linejoin="round"/>
<path d="M495.012 256.625C491.657 255.881 488.16 256.111 484.932 257.287C481.41 258.634 476.884 262.123 473.671 264.85C474.687 261.195 475.173 257.663 474.676 255.311C473.782 250.994 471.441 243.266 471.441 243.266L486.897 239.303L492.296 253.512C492.296 253.512 493.488 254.792 495.012 256.625Z" fill="white" stroke="#263238" stroke-linecap="round" stroke-linejoin="round"/>
<path d="M464.309 213.834C464.309 213.834 462.101 219.597 461.384 222.059C460.666 224.52 459.485 226.938 458.016 227.17C456.548 227.402 455.19 228.528 456.096 230.416C457.012 231.954 458.163 233.339 459.507 234.523C459.507 234.523 460.821 243.863 461.792 245.033C462.764 246.203 467.312 246.137 470.061 245.43C472.81 244.724 478.153 243.829 478.153 243.829C478.153 243.829 479.887 225.061 478.805 221.131C477.723 217.201 473.009 211.571 471.618 210.897C470.227 210.224 464.309 213.834 464.309 213.834Z" fill="white" stroke="#263238" stroke-linecap="round" stroke-linejoin="round"/>
<path d="M463.238 225.481C463.139 226.464 463.426 227.303 463.879 227.347C464.331 227.391 464.751 226.618 464.85 225.624C464.95 224.631 464.652 223.803 464.199 223.759C463.746 223.715 463.327 224.487 463.238 225.481Z" fill="#263238"/>
<path d="M467.798 223.008C467.798 223.008 465.192 219.884 463.283 220.966" stroke="#263238" stroke-linecap="round" stroke-linejoin="round"/>
<path d="M466.363 234.611C465 235.584 463.378 236.13 461.704 236.179" stroke="#263238" stroke-linecap="round" stroke-linejoin="round"/>
<path d="M470.69 213.16C470.69 213.16 475.581 222.82 476.012 223.946C476.442 225.072 476.784 244.922 475.647 249.559C475.125 252.096 473.768 254.385 471.794 256.062C478.086 257.41 484.516 258.003 490.949 257.828C501.812 257.574 506.747 254.958 506.747 254.958C505.606 246.204 504.913 237.397 504.672 228.572C504.418 215.545 498.611 206.161 491.357 204.417C484.104 202.672 475.305 204.196 475.305 204.196C475.305 204.196 470.238 198.488 463.879 202.783C457.52 207.077 459.849 213.249 462.775 215.136C464.964 216.465 467.279 217.574 469.686 218.448L470.69 213.16Z" fill="#263238" stroke="#263238" stroke-linecap="round" stroke-linejoin="round"/>
<path d="M452.519 279.246C452.519 279.246 480.615 261.968 484.391 261.427C488.167 260.886 493.919 267.179 492.119 274.013C490.32 280.847 452.519 294.536 451.271 294.713C450.024 294.889 419.376 265.059 419.376 265.059C416.987 264.365 414.642 263.525 412.355 262.542C410.556 261.637 403.324 259.352 401.017 258.634C400.825 258.573 400.664 258.44 400.567 258.263C400.471 258.086 400.446 257.879 400.498 257.685C400.543 257.49 400.661 257.32 400.827 257.209C400.993 257.098 401.195 257.055 401.392 257.088L407.321 258.049L400.211 253.578C400.032 253.461 399.89 253.294 399.804 253.098C399.718 252.902 399.69 252.685 399.725 252.474C399.756 252.321 399.82 252.177 399.91 252.051C400.001 251.925 400.117 251.819 400.252 251.741C400.386 251.663 400.536 251.614 400.691 251.597C400.845 251.581 401.002 251.598 401.149 251.646L408.403 254.273L400.366 247.716C400.142 247.546 399.991 247.298 399.943 247.021C399.896 246.744 399.956 246.459 400.112 246.225C400.182 246.095 400.277 245.981 400.393 245.889C400.508 245.796 400.64 245.728 400.782 245.688C400.925 245.648 401.073 245.637 401.22 245.655C401.366 245.673 401.507 245.721 401.635 245.795L410.202 250.321L405.024 244.801C404.912 244.681 404.827 244.538 404.777 244.381C404.727 244.224 404.713 244.059 404.735 243.896C404.757 243.733 404.815 243.577 404.906 243.439C404.996 243.302 405.116 243.186 405.256 243.101C405.442 242.99 405.656 242.936 405.872 242.946C406.088 242.956 406.296 243.029 406.471 243.156L416.495 250.464L415.391 247.042C415.331 246.862 415.309 246.671 415.328 246.481C415.346 246.292 415.404 246.109 415.497 245.943C415.591 245.778 415.718 245.634 415.871 245.521C416.024 245.408 416.199 245.328 416.385 245.287C416.68 245.222 416.989 245.258 417.262 245.39C417.534 245.523 417.754 245.743 417.886 246.015C418.604 247.495 419.973 250.277 420.48 251.182C421.373 252.804 421.982 254.566 422.28 256.393C422.28 257.497 422.468 259.992 422.468 259.992L452.519 279.246Z" fill="white" stroke="#263238" stroke-linecap="round" stroke-linejoin="round"/>
<path d="M436.588 281.52L436.941 280.935L442.583 273.141L452.519 279.202C452.519 279.202 480.615 261.924 484.391 261.383C488.167 260.842 493.919 267.135 492.119 273.969C490.32 280.802 452.519 294.492 451.271 294.669C450.653 294.768 446.104 290.253 436.588 281.52Z" fill="#38B6FF" stroke="#263238" stroke-linecap="round" stroke-linejoin="round"/>
<path d="M446.038 275.238L438.133 284.81L433.596 281.211L441.49 271.407L446.038 275.238Z" fill="#38B6FF" stroke="#263238" stroke-linecap="round" stroke-linejoin="round"/>
<path d="M341.721 208.159V190.716H347.241C348.133 190.677 349.019 190.883 349.802 191.312C350.468 191.708 350.987 192.308 351.282 193.023C351.626 193.886 351.791 194.81 351.768 195.739C351.823 196.754 351.602 197.766 351.127 198.665C350.739 199.347 350.126 199.873 349.394 200.155C348.592 200.464 347.737 200.614 346.877 200.597H345.265V208.159H341.721ZM345.276 198.102H346.524C346.935 198.127 347.347 198.044 347.716 197.859C347.859 197.773 347.984 197.66 348.082 197.525C348.181 197.391 348.252 197.237 348.29 197.075C348.402 196.624 348.454 196.16 348.444 195.695C348.451 195.247 348.41 194.799 348.323 194.359C348.262 194.021 348.072 193.721 347.793 193.52C347.404 193.287 346.954 193.179 346.501 193.211H345.276V198.102Z" fill="#38B6FF"/>
<path d="M353.479 208.159V190.716H357.994C359.017 190.695 360.037 190.829 361.019 191.113C361.811 191.345 362.498 191.844 362.962 192.527C363.458 193.375 363.692 194.35 363.636 195.331C363.645 195.968 363.586 196.605 363.459 197.23C363.349 197.753 363.127 198.247 362.808 198.676C362.467 199.112 362.018 199.451 361.505 199.658L363.923 208.159H360.279L358.281 200.255H357.034V208.159H353.479ZM357.034 198.146H358.06C358.529 198.17 358.996 198.075 359.418 197.87C359.748 197.68 359.999 197.379 360.125 197.02C360.267 196.563 360.334 196.085 360.324 195.607C360.366 194.962 360.212 194.319 359.882 193.763C359.68 193.532 359.425 193.353 359.138 193.243C358.851 193.134 358.542 193.096 358.237 193.134H357.034V198.146Z" fill="#38B6FF"/>
<path d="M370.767 208.391C369.712 208.447 368.661 208.21 367.731 207.707C366.989 207.253 366.424 206.56 366.131 205.741C365.782 204.757 365.617 203.716 365.645 202.672V196.17C365.616 195.129 365.781 194.092 366.131 193.112C366.422 192.298 366.988 191.611 367.731 191.169C368.689 190.728 369.73 190.501 370.784 190.501C371.838 190.501 372.879 190.728 373.836 191.169C374.58 191.613 375.149 192.299 375.448 193.112C375.794 194.09 375.958 195.122 375.934 196.159V202.661C375.955 203.705 375.79 204.744 375.448 205.73C375.15 206.55 374.582 207.243 373.836 207.696C372.897 208.204 371.835 208.445 370.767 208.391ZM370.767 205.83C371.133 205.863 371.498 205.752 371.783 205.521C372.005 205.289 372.155 204.997 372.214 204.682C372.28 204.317 372.313 203.948 372.313 203.578V195.331C372.314 194.96 372.281 194.591 372.214 194.227C372.152 193.915 372.003 193.628 371.783 193.399C371.498 193.168 371.133 193.057 370.767 193.09C370.416 193.061 370.067 193.172 369.796 193.399C369.576 193.628 369.426 193.915 369.365 194.227C369.294 194.59 369.257 194.96 369.255 195.331V203.578C369.254 203.948 369.288 204.317 369.354 204.682C369.404 204.998 369.551 205.291 369.774 205.521C370.053 205.748 370.409 205.859 370.767 205.83Z" fill="#38B6FF"/>
<path d="M378.308 208.159V190.716H382.569C383.748 190.666 384.925 190.862 386.025 191.29C386.817 191.64 387.445 192.28 387.78 193.079C388.153 194.073 388.326 195.131 388.288 196.192V202.54C388.324 203.626 388.151 204.709 387.78 205.73C387.452 206.537 386.833 207.191 386.047 207.563C384.975 208.009 383.817 208.213 382.657 208.159H378.308ZM381.852 205.686H382.613C383.102 205.726 383.592 205.615 384.015 205.366C384.162 205.258 384.285 205.121 384.377 204.964C384.468 204.806 384.525 204.631 384.545 204.45C384.628 203.946 384.665 203.436 384.656 202.926V195.739C384.67 195.249 384.622 194.76 384.512 194.282C384.478 194.118 384.412 193.962 384.317 193.824C384.222 193.685 384.101 193.567 383.96 193.476C383.535 193.269 383.063 193.178 382.591 193.211H381.852V205.686Z" fill="#38B6FF"/>
<path d="M395.552 208.391C394.483 208.453 393.418 208.22 392.472 207.718C391.741 207.271 391.193 206.578 390.926 205.763C390.615 204.756 390.466 203.705 390.485 202.65V190.716H393.996V203.136C393.995 203.561 394.028 203.986 394.095 204.406C394.142 204.774 394.291 205.122 394.525 205.41C394.811 205.66 395.178 205.798 395.558 205.798C395.937 205.798 396.304 205.66 396.59 205.41C396.825 205.123 396.971 204.774 397.009 204.406C397.067 203.985 397.096 203.561 397.098 203.136V190.716H400.608V202.65C400.634 203.705 400.485 204.757 400.167 205.763C399.901 206.575 399.358 207.267 398.632 207.718C397.686 208.217 396.621 208.45 395.552 208.391Z" fill="#38B6FF"/>
<path d="M407.928 208.391C406.856 208.447 405.791 208.194 404.859 207.662C404.114 207.188 403.556 206.47 403.28 205.631C402.964 204.654 402.811 203.632 402.828 202.606V196.335C402.807 195.28 402.96 194.228 403.28 193.222C403.557 192.389 404.115 191.679 404.859 191.213C405.796 190.695 406.859 190.45 407.928 190.506C408.944 190.456 409.955 190.669 410.865 191.124C411.559 191.519 412.094 192.144 412.377 192.891C412.683 193.74 412.832 194.638 412.819 195.54V197.009H409.374V195.408C409.374 195.039 409.352 194.67 409.308 194.304C409.277 193.988 409.155 193.689 408.955 193.443C408.82 193.32 408.661 193.227 408.488 193.17C408.315 193.113 408.131 193.093 407.95 193.112C407.763 193.094 407.574 193.116 407.396 193.175C407.217 193.234 407.053 193.329 406.912 193.454C406.694 193.707 406.553 194.017 406.504 194.348C406.448 194.75 406.422 195.156 406.427 195.563V203.489C406.42 203.919 406.457 204.348 406.537 204.77C406.593 205.091 406.752 205.385 406.99 205.609C407.263 205.821 407.605 205.923 407.95 205.896C408.128 205.914 408.308 205.893 408.477 205.836C408.646 205.779 408.802 205.687 408.933 205.565C409.136 205.307 409.262 204.997 409.297 204.671C409.346 204.279 409.372 203.884 409.374 203.489V201.789H412.819V203.136C412.835 204.052 412.689 204.964 412.388 205.83C412.114 206.598 411.589 207.251 410.898 207.684C409.995 208.198 408.965 208.443 407.928 208.391Z" fill="#38B6FF"/>
<path d="M416.628 208.159V193.366H413.934V190.716H422.832V193.366H420.182V208.159H416.628Z" fill="#38B6FF"/>
<path d="M356.062 237.437C355.67 237.234 355.3 236.989 354.958 236.709C354.507 236.373 354.083 236.004 353.688 235.605C353.277 235.193 352.907 234.742 352.584 234.258H352.397H352.176C351.119 234.312 350.068 234.072 349.14 233.562C348.396 233.111 347.83 232.417 347.539 231.597C347.19 230.613 347.025 229.572 347.053 228.528V222.025C347.025 220.985 347.19 219.948 347.539 218.967C347.828 218.155 348.395 217.47 349.14 217.035C350.074 216.547 351.124 216.322 352.176 216.384C353.242 216.333 354.302 216.57 355.245 217.068C355.99 217.506 356.56 218.189 356.857 219C357.202 219.978 357.367 221.011 357.343 222.048V228.528C357.347 229.27 357.269 230.011 357.111 230.736C356.983 231.357 356.731 231.947 356.371 232.469C356.008 232.945 355.535 233.324 354.991 233.573L355.576 234.18C355.768 234.376 355.971 234.56 356.184 234.732C356.36 234.894 356.553 235.038 356.758 235.163L356.062 237.437ZM352.176 231.674C352.543 231.702 352.907 231.587 353.192 231.354C353.416 231.124 353.566 230.832 353.622 230.515C353.689 230.151 353.723 229.781 353.722 229.411V221.164C353.723 220.794 353.69 220.424 353.622 220.06C353.564 219.745 353.414 219.453 353.192 219.221C352.903 218.997 352.541 218.887 352.176 218.912C351.818 218.888 351.464 218.999 351.182 219.221C350.96 219.451 350.813 219.744 350.763 220.06C350.695 220.424 350.662 220.794 350.664 221.164V229.411C350.663 229.781 350.696 230.151 350.763 230.515C350.81 230.832 350.957 231.126 351.182 231.354C351.459 231.586 351.816 231.701 352.176 231.674Z" fill="#38B6FF"/>
<path d="M364.651 234.236C363.581 234.294 362.516 234.058 361.571 233.551C360.842 233.104 360.298 232.411 360.036 231.597C359.717 230.591 359.568 229.539 359.595 228.484V216.561H363.106V228.981C363.107 229.405 363.137 229.829 363.194 230.25C363.241 230.622 363.39 230.974 363.624 231.266C363.757 231.401 363.918 231.506 364.095 231.572C364.272 231.639 364.462 231.666 364.651 231.652C364.844 231.668 365.037 231.642 365.218 231.575C365.4 231.508 365.564 231.403 365.7 231.266C365.931 230.973 366.076 230.621 366.12 230.25C366.173 229.829 366.199 229.405 366.197 228.981V216.561H369.708V228.528C369.735 229.583 369.585 230.635 369.266 231.641C369.004 232.455 368.46 233.148 367.731 233.595C366.783 234.087 365.717 234.308 364.651 234.236Z" fill="#38B6FF"/>
<path d="M371.198 234.048L374.576 216.616H378.517L381.829 234.048H378.517L377.888 230.217H375.139L374.466 234.048H371.198ZM375.526 228.042H377.568L376.464 220.999L375.526 228.042Z" fill="#38B6FF"/>
<path d="M383.519 234.048V216.561H387.062V231.586H391.158V234.048H383.519Z" fill="#38B6FF"/>
<path d="M392.748 234.048V216.561H396.336V234.048H392.748Z" fill="#38B6FF"/>
<path d="M400.586 234.048V219.21H397.893V216.561H406.813V219.21H404.163V234.048H400.586Z" fill="#38B6FF"/>
<path d="M410.688 234.048V227.137L407.288 216.616H410.6L412.476 222.743L414.221 216.616H417.444L414.132 227.137V234.048H410.688Z" fill="#38B6FF"/>
<path d="M356.228 173.946L357.42 177.6H361.251L358.149 179.853L359.33 183.496L356.228 181.244L353.125 183.496L354.307 179.853L351.204 177.6H355.046L356.228 173.946Z" fill="#38B6FF"/>
<path d="M369.663 173.946L370.845 177.6H374.687L371.573 179.853L372.766 183.496L369.663 181.244L366.561 183.496L367.742 179.853L364.64 177.6H368.471L369.663 173.946Z" fill="#38B6FF"/>
<path d="M383.088 173.946L384.28 177.6H388.111L385.009 179.853L386.19 183.496L383.088 181.244L379.986 183.496L381.178 179.853L378.065 177.6H381.907L383.088 173.946Z" fill="#38B6FF"/>
<path d="M396.524 173.946L397.705 177.6H401.547L398.445 179.853L399.626 183.496L396.524 181.244L393.421 183.496L394.603 179.853L391.5 177.6H395.342L396.524 173.946Z" fill="#38B6FF"/>
<path d="M409.959 173.946L411.141 177.6H414.972L411.869 179.853L413.062 183.496L409.959 181.244L406.846 183.496L408.038 179.853L404.936 177.6H408.767L409.959 173.946Z" fill="#38B6FF"/>
</svg>
