<svg width="86" height="108" viewBox="0 0 86 108" fill="none" xmlns="http://www.w3.org/2000/svg">
<path fill-rule="evenodd" clip-rule="evenodd" d="M20.5754 38.4038L29.3884 43.4879C33.0503 44.2007 36.9065 41.6098 39.5964 39.3429C45.7855 32.9957 53.2388 27.7502 62.02 26.0983L33.148 9.4216C35.8697 8.25517 38.8836 7.64012 42.027 7.64012C53.0762 7.64012 62.3122 15.4766 64.4506 25.8721C66.9779 25.5151 69.4085 25.4503 71.9687 25.7743C69.7007 11.2997 57.1599 0.191352 42.027 0.191352C35.9675 0.191352 30.3286 1.97283 25.5651 5.0492L17.756 0.548329C15.7789 -0.585131 13.2517 0.0947177 12.1171 2.0706L0.548289 22.0829C-0.585171 24.0588 0.0946778 26.5838 2.07169 27.7173L5.79836 29.8875L5.76539 29.8227L20.5106 38.4368V38.4038H20.5754ZM22.4546 18.6507C23.5881 21.0791 31.7224 19.6864 31.7224 25.4185C31.7224 28.4619 29.518 30.1467 26.6019 30.4378V33.5142H23.8155V30.3082C21.9033 29.9523 20.2184 29.1429 18.695 27.7821L20.4776 25.6777C21.2882 26.3894 22.1306 26.9078 22.9731 27.2966C24.9489 28.1709 28.8052 28.2686 28.8052 25.7095C28.8052 21.8885 19.376 24.5761 19.376 18.0675C19.376 15.4118 21.2882 13.6633 23.8473 13.2426V10.1014H26.6349V13.2426C28.3516 13.4689 29.842 14.1817 31.204 15.2503L29.6158 17.4843C28.8382 16.934 28.0924 16.4804 27.3148 16.1894C25.2093 15.347 22.2921 15.6391 22.2921 17.7765C22.2921 18.0993 22.3569 18.3915 22.4546 18.6507Z" fill="#38B6FF"/>
<path fill-rule="evenodd" clip-rule="evenodd" d="M64.9372 30.0171C57.2246 30.8583 49.7713 35.0363 42.5454 42.5169C36.3881 47.6977 30.9118 49.1551 26.0835 46.9212C25.0137 46.4346 24.0099 45.7548 23.0049 44.8805L12.9595 38.987C13.5427 41.0276 14.3533 43.0024 15.3571 44.8157C20.672 53.7208 31.3654 58.5786 41.8974 56.0525C52.0076 53.2683 60.2055 48.4753 66.5572 41.7075C61.0161 51.8757 49.8691 57.7692 33.115 59.4529C33.2128 59.4529 42.3828 65.5738 54.503 62.012C61.696 59.9065 67.6907 54.952 71.0933 48.2809C74.5289 42.5169 79.7779 38.0479 86 35.5548C79.3243 31.4097 72.2598 29.1746 64.9372 29.9841V30.0171Z" fill="#89C400"/>
<path d="M13.9351 75.1011H20.3197C22.4229 75.1011 23.4757 75.9901 23.4757 77.7659V81.7222C23.4757 83.4992 22.4229 84.3871 20.3197 84.3871H17.6958V88.8982H13.9351V75.1011ZM19.7149 81.2266V78.2616C19.7149 77.9467 19.5353 77.7887 19.1783 77.7887H17.6958V81.6995H19.1783C19.5353 81.6995 19.7149 81.5426 19.7149 81.2266Z" fill="#89C400"/>
<path d="M30.2031 83.996V88.8982H26.4424V75.1011H32.827C34.9303 75.1011 35.983 75.9901 35.983 77.7659V81.3312C35.983 82.6931 35.3668 83.531 34.1367 83.8459L36.6742 88.8982H32.6315L30.4396 83.996H30.2031ZM31.6856 77.7887H30.2031V81.4403H31.6856C32.0426 81.4403 32.2222 81.2834 32.2222 80.9674V78.2616C32.2222 77.9467 32.0426 77.7887 31.6856 77.7887Z" fill="#89C400"/>
<path d="M42.9248 86.2106H47.6315V88.8982H39.1641V75.1011H47.4405V77.7887H42.9248V80.6036H46.8129V83.2911H42.9248V86.2106Z" fill="#89C400"/>
<path d="M59.7295 80.2579H55.9687V78.0433C55.9687 77.7284 55.7891 77.5704 55.4321 77.5704H54.6818C54.3203 77.5704 54.1406 77.7284 54.1406 78.0433V85.9559C54.1406 86.272 54.3203 86.4289 54.6818 86.4289H55.4321C55.7891 86.4289 55.9687 86.272 55.9687 85.9559V83.8277H59.7295V86.2333C59.7295 88.0103 58.6756 88.8982 56.569 88.8982H53.5404C51.4326 88.8982 50.3799 88.0103 50.3799 86.2333V77.7659C50.3799 75.9901 51.4326 75.1011 53.5404 75.1011H56.569C58.6756 75.1011 59.7295 75.9901 59.7295 77.7659V80.2579ZM53.2812 91.5402V89.885H56.7236V91.8222C56.7236 93.598 55.6697 94.487 53.5631 94.487H51.6077V92.0132H52.7446C53.1015 92.0132 53.2812 91.8552 53.2812 91.5402Z" fill="#89C400"/>
<path d="M65.8993 75.1011H69.078C71.1846 75.1011 72.2385 75.9901 72.2385 77.7659V86.2333C72.2385 88.0103 71.1846 88.8982 69.078 88.8982H65.8993C63.7915 88.8982 62.7388 88.0103 62.7388 86.2333V77.7659C62.7388 75.9901 63.7915 75.1011 65.8993 75.1011ZM68.4777 85.7377V78.2616C68.4777 77.9467 68.2981 77.7887 67.9411 77.7887H67.0361C66.678 77.7887 66.4995 77.9467 66.4995 78.2616V85.7377C66.4995 86.0537 66.678 86.2106 67.0361 86.2106H67.9411C68.2981 86.2106 68.4777 86.0537 68.4777 85.7377Z" fill="#89C400"/>
<path d="M32.7568 101.698C32.4169 101.698 32.0849 101.884 31.7609 102.257C31.4392 102.628 31.1765 103.112 30.9742 103.713C30.7741 104.313 30.674 104.929 30.674 105.559C30.674 106.253 30.9378 106.6 31.4653 106.6C31.9655 106.6 32.4225 106.294 32.8386 105.682L33.0478 105.768C32.7954 106.168 32.4771 106.5 32.0929 106.764C31.7109 107.028 31.272 107.16 30.7786 107.16C30.2716 107.16 29.8669 107.024 29.5645 106.755C29.2643 106.485 29.1143 106.086 29.1143 105.559C29.1143 104.962 29.2621 104.347 29.5599 103.713C29.86 103.079 30.2795 102.552 30.8196 102.13C31.3618 101.706 31.9758 101.493 32.6613 101.493C33.0433 101.493 33.3491 101.589 33.5799 101.78C33.8129 101.969 33.93 102.205 33.93 102.489C33.93 102.678 33.8846 102.862 33.7936 103.044C33.7049 103.224 33.581 103.369 33.4207 103.481C33.2627 103.59 33.0899 103.644 32.9023 103.644C32.7295 103.644 32.5863 103.59 32.4748 103.481C32.3623 103.369 32.3066 103.221 32.3066 103.039C32.3066 102.77 32.3998 102.53 32.5885 102.321C32.7761 102.11 32.9989 101.971 33.257 101.907C33.1388 101.768 32.9717 101.698 32.7568 101.698Z" fill="#38B6FF"/>
<path d="M41.8638 102.312C41.8638 102.888 41.5409 103.392 40.8951 103.822C40.2517 104.253 39.5048 104.584 38.6532 104.818C38.61 105.054 38.5896 105.29 38.5896 105.527C38.5896 105.894 38.6555 106.155 38.7897 106.309C38.9261 106.461 39.1262 106.537 39.3899 106.537C39.6048 106.537 39.8469 106.471 40.1175 106.336C40.387 106.2 40.6507 105.982 40.9088 105.682L41.077 105.768C40.8247 106.157 40.4881 106.485 40.0675 106.755C39.6491 107.024 39.1807 107.16 38.6623 107.16C38.1826 107.16 37.7904 107.032 37.4845 106.778C37.181 106.521 37.0298 106.159 37.0298 105.695C37.0298 105.077 37.1946 104.439 37.5255 103.781C37.8586 103.12 38.3133 102.575 38.8897 102.144C39.465 101.71 40.0959 101.493 40.7815 101.493C41.1021 101.493 41.3635 101.565 41.5636 101.707C41.7637 101.847 41.8638 102.048 41.8638 102.312ZM40.5541 101.689C40.354 101.689 40.1243 101.832 39.8674 102.116C39.6128 102.402 39.3774 102.771 39.1626 103.226C38.9465 103.678 38.7862 104.143 38.6805 104.622C39.1739 104.407 39.5559 104.175 39.8265 103.926C40.105 103.675 40.3233 103.389 40.4813 103.067C40.6416 102.746 40.7223 102.402 40.7223 102.034C40.7223 101.901 40.7064 101.811 40.6769 101.762C40.6496 101.714 40.6087 101.689 40.5541 101.689Z" fill="#38B6FF"/>
<path d="M49.3648 101.493C49.6286 101.493 49.8344 101.573 49.9833 101.73C50.1311 101.884 50.2061 102.087 50.2061 102.335C50.2061 102.632 50.1106 102.887 49.9196 103.099C49.7286 103.311 49.4944 103.417 49.2193 103.417C49.0158 103.417 48.8578 103.365 48.7464 103.258C48.6372 103.149 48.5827 102.993 48.5827 102.789C48.5827 102.547 48.6657 102.328 48.8328 102.13C48.9988 101.933 49.2034 101.807 49.4467 101.753C49.4308 101.753 49.4103 101.748 49.383 101.739C49.3557 101.728 49.3307 101.721 49.3103 101.721C48.9578 101.721 48.5974 101.978 48.228 102.489C47.8608 103.002 47.4867 103.917 47.1047 105.236L46.65 107.014H45.1812L46.4499 102.521C46.4863 102.41 46.5045 102.302 46.5045 102.198C46.5045 102.069 46.4476 102.003 46.3362 102.003C46.2055 102.003 46.0872 102.065 45.9815 102.189C45.8781 102.314 45.7723 102.524 45.6632 102.821L45.4631 103.353H45.2676L45.545 102.562C45.8019 101.85 46.2816 101.493 46.982 101.493C47.5151 101.493 47.7823 101.774 47.7823 102.335C47.7823 102.535 47.755 102.739 47.7005 102.949L47.6141 103.281C47.871 102.623 48.1336 102.161 48.4008 101.894C48.6668 101.627 48.9885 101.493 49.3648 101.493Z" fill="#38B6FF"/>
<path d="M54.7703 106.132C54.7487 106.199 54.7385 106.267 54.7385 106.336C54.7385 106.443 54.7658 106.522 54.8203 106.573C54.8772 106.625 54.9545 106.65 55.0523 106.65C55.2035 106.65 55.3501 106.576 55.4934 106.427C55.6355 106.28 55.7617 106.054 55.8708 105.754L56.03 105.331H56.2255L56.0209 105.932C55.748 106.75 55.2262 107.159 54.4565 107.159C54.1041 107.159 53.8392 107.068 53.6607 106.887C53.4845 106.702 53.397 106.45 53.397 106.132C53.397 105.929 53.4288 105.72 53.4925 105.504L54.5429 101.843H53.6062L53.6562 101.639H54.6021L55.0523 100.088C55.64 100.082 56.1414 100.034 56.5575 99.9426L56.0709 101.639H57.2441L57.2169 101.843H56.0072L54.7703 106.132Z" fill="#38B6FF"/>
<path d="M60.0098 105.445C60.0098 104.876 60.1394 104.283 60.4008 103.667C60.6612 103.049 61.0466 102.532 61.5559 102.116C62.0652 101.701 62.6723 101.493 63.3794 101.493C63.9217 101.493 64.339 101.641 64.63 101.934C64.921 102.229 65.0666 102.653 65.0666 103.208C65.0666 103.775 64.9358 104.367 64.6755 104.986C64.414 105.604 64.0297 106.122 63.5204 106.537C63.0111 106.953 62.4029 107.16 61.6969 107.16C61.1569 107.16 60.7396 107.013 60.4463 106.718C60.1553 106.425 60.0098 106 60.0098 105.445ZM63.3294 101.698C63.0714 101.698 62.7894 101.946 62.4836 102.439C62.1801 102.93 61.9243 103.534 61.7151 104.249C61.5082 104.962 61.4058 105.627 61.4058 106.245C61.4058 106.494 61.4331 106.675 61.4877 106.787C61.5423 106.896 61.6332 106.95 61.7605 106.95C62.0152 106.95 62.2926 106.713 62.5927 106.236C62.8951 105.758 63.1498 105.163 63.3567 104.454C63.5659 103.742 63.6705 103.066 63.6705 102.426C63.6705 102.156 63.6432 101.969 63.5886 101.862C63.5341 101.753 63.4477 101.698 63.3294 101.698Z" fill="#38B6FF"/>
</svg>
